<?xml-stylesheet type="text/css" href="app.0382b260.css"?><svg class="slider-tomato" viewBox="0 0 700 656" fill="none" xmlns="http://www.w3.org/2000/svg"><g><path d="m154.405 74.977 25.109 144.983 402.739 175.337 82.139-48.977-69.385 79.078 88.262 18.99-93.874 12.522 68.875 105.217-88.262-79.078 24.999 73.976-46.426-73.976-3.572 108.158-44.386-101.526-359.638-186.885L16.731 324.95l93.603-67.402-86.731-54.59 99.078 27.996-94.417-97.438 114.811 76.666 11.33-135.205Z" fill="#FFE600"/><path d="m122.455 177.636 53.082 48.344 207.573 58.465 129.538 91.301 30.852 5.379 41.553 34.831 62.33-26.888-55.608 56.484 37.275 44.955-54.385-22.014 22.61 70.289-32.387-51.942-7.944 45.831-44.296-71.496-337.111-119.79-29.846-7.896-16.919-42.299-60.39 10.165 40.964-29.495-40.965-26.217h54.074L58.55 185.015l80.291 40.965-16.386-48.344Z" fill="#FB1101"/><path d="M520.304 164.697a5 5 0 0 0 6.736-2.15l23.547-45.621a4.999 4.999 0 0 0-2.15-6.736l-24.473-12.632c-5.125 27.333-13.461 37.376-30.288 53.395l26.628 13.744Z" fill="#142E2F"/><path d="M435.023 51.652a5 5 0 0 0-6.736 2.15l-23.547 45.62a5 5 0 0 0 2.15 6.737l11.87 6.127c4.242-23.429 8.582-35.92 29.106-54.005l-12.843-6.629Z" fill="#666B6B"/><path d="M447.866 58.28c-20.524 18.085-24.864 30.577-29.106 54.006l23.912 12.342.186-1.231c3.66-24.248 5.769-38.219 26.923-53.805L447.866 58.28Z" fill="#244142"/><path d="M508.15 81.877c2.807-1.681 2.443-2.627-.176-4.588l-5.067-3.795c-2.25-1.685-5.487-1.21-7.49.763-3.057 3.01-8.063 6.96-14.513 8.63-3.026.783-5.031 3.712-2.491 5.535 3.563 2.556 8.855 4.069 11.36 6.773 1.333 1.44 3.666 1.01 4.781-.604 3.868-5.602 9.514-10.267 13.596-12.713Z" fill="#000"/><path d="M493.676 150.953c16.827-16.019 25.163-26.062 30.288-53.395l-18.338-9.31-19.598-10.254-2.381-1.245-13.866-7.157c-21.154 15.586-23.263 29.557-26.923 53.805l-.186 1.231 13.209 6.817 37.795 19.508Z" fill="#142E2F"/><path d="M609.805 286.352c-6.465-36.196-20.632-69.724-40.746-98.828 4.319 98.821-10.617 163.151-41.269 205.484l32.079 6.309c18.103-30.195 34.598-67.448 49.936-112.965Z" fill="#244142"/><path d="M613.754 331.107c0-15.272-1.354-30.228-3.949-44.755-15.338 45.517-31.833 82.77-49.936 112.965l16.615 63.989c23.638-38.465 37.27-83.74 37.27-132.199ZM142.819 518.262c46.198 60.511 119.088 99.553 201.097 99.553 91.187 0 171.1-48.27 215.581-120.651l-16.615-63.99c-83.848 139.849-202.213 128.282-400.063 85.088Z" fill="#142E2F"/><path d="m193.001 283.244 22.841 19.431 53.414-2.563-18.273-23.544-57.982 6.676ZM342.051 336.533h52.708l20.593 30.27h-24.671l-10.172-10.848h-15.894l-22.564-19.422ZM254.949 333.331l23.857 17.387 28.709-19.813-52.566 2.426Z" fill="#2D4F51"/><path d="M142.819 518.262c197.85 43.194 316.215 54.761 400.063-85.088l-32.079 18.649-9.24-12.221c-55.058 76.04-151.582 68.375-287.547 74.895h-.004c-22.907 1.099-46.67 2.238-71.193 3.765ZM504.528 418.069l11.042 17.895 22.845-10.661-33.887-7.234Z" fill="#244142"/><path d="M569.059 187.524C523.437 121.509 447.22 78.256 360.902 78.256c-103.092 0-191.774 61.698-231.137 150.183l46.917 46.294 85.255-8.507 20.318 36.449h125.473l49.725 76.501 28.15-5.271 10.888 12.948 31.299 6.155c30.652-42.333 45.588-106.663 41.269-205.484Z" fill="#2D4F51"/><path d="m462.099 386.853 20.687-6.77 8.333 14.206-29.02-7.436ZM436.892 396.035c.269.448 6.911 8.18 10.198 11.991l11.655-2.578-13-7.396-8.853-2.017ZM370.594 319.583l-35.988-4.043 51.757 11.322-15.769-7.279ZM407.728 330.905h10.732l6.317 12.131-6.317 7.682-10.732-19.813Z" fill="#2D4F51"/><path d="M91.065 364.964c0 57.637 19.285 110.77 51.754 153.298 24.523-1.527 48.286-2.666 71.193-3.765h.004c135.965-6.52 232.489 1.145 287.547-74.895l-12.926-17.096-48.17-9.473-22.007-33.857h-34.844l-10.172-10.848H357.55l-33.06-31.795-42.235 28.908-43.316-28.908h-50.924l-8.84-8.724h-31.523l-2.221-33.295-32.653-32.218c-13.956 31.374-21.713 66.115-21.713 102.668Z" fill="#2D4F51"/><path d="M155.58 302.675v17.974h23.595l-23.595-17.974ZM193.001 318.331l6.477 9.478 8.68-3.192-15.157-6.286Z" fill="#2D4F51"/><path d="M337.518 184.652c-10.738 16.551-29.141 17.027-46.779 5.584-9.235-14.883-10.738-18.013 0-34.564s47.231-17.439 64.869-5.996c17.639 11.444-7.352 18.425-18.09 34.976Z" fill="#666B6B"/><path d="M580.737 612.444 568.25 501.613l38.954 107.849-26.467 2.982ZM665.691 380.758l-61.769 51.2 65.904-22.436-4.135-28.764ZM44.115 303.423l51.39-29.782-58.502 17.51 7.112 12.272ZM107.41 97.707l23.123 76.258-42.307-54.693 19.184-21.565ZM652.113 498.631c-19.584-9.193-61.152-28.298-70.745-31.176l93.528 15.588-22.783 15.588ZM42.058 208.538c14.878 5.874 46.236 18.548 52.649 22.249L38.89 188.376l3.168 20.162Z" fill="#2D4F51"/><text class="timer-text" x="50%" y="62%" style="fill:#aad9dc;font-family:Neucha,sans-serif;font-size:11rem!important" text-anchor="middle"/></g></svg>