<?xml-stylesheet type="text/css" href="app.178e0c90.css"?><svg class="slider-tomato" viewBox="0 0 700 656" fill="none" xmlns="http://www.w3.org/2000/svg"><g class="bomb-white"><path d="M510.724 86.147c3.91-.379 6.476-4.78 4.513-8.196l-1.548-2.693c-.875-1.522-2.478-2.473-4.228-2.416-2.764.09-7.236.374-11.929 1.234-.399 4.713-.087 7.628 1.788 11.349a33.71 33.71 0 0 0 1.453 2.568c3.275-.99 6.82-1.542 9.951-1.846Z" fill="#000"/><path d="M473.85 112.402c2.876 2.748 7.812 1.219 9.032-2.572 2.092-6.496 5.691-14.8 11.205-18.743 1.874-1.34 4.202-2.343 6.686-3.094a33.71 33.71 0 0 1-1.453-2.568c-9.915 1.583-15.045 9.49-15.863 13.383-.752 3.577-1.734 6.099-4.756 8.713-.546.472-1.209.798-1.922.893-3.141.42-4.849-.904-7.522-2.978l-.386-.299a448.83 448.83 0 0 0-.441 1.964l-.002.007-.02.093 5.442 5.201Z" fill="#BA9A43"/><path d="M497.532 74.076c-4.974.91-10.196 2.469-13.894 5.13-.233.168-.45.367-.645.578-10.388 11.237-12.176 16.797-14.122 25.353l.386.299c2.673 2.074 4.381 3.398 7.522 2.978.713-.095 1.376-.421 1.922-.893 3.022-2.614 4.004-5.136 4.756-8.713.818-3.892 5.948-11.8 15.863-13.383-1.875-3.72-2.187-6.636-1.788-11.35Z" fill="#E9CD7A"/><path d="m489.966 8.706 30.392 43.03 5.632-47.111 17.123 47.111 70.276-47.111-61.742 65.662 55.044 2.314-55.044 14.097c13.037 33.059 38.685 99.89 36.978 102.744-1.707 2.854-37.215-61.599-54.756-94.182l-13.511 24.259-9.245-44.95-53.209-4.282 32.062-7.408-85.682-50.303 98.949 43.117-13.267-46.987Z" fill="#FFD01E"/><path id="bombP1" d="M424.629 73.93a4.98 4.98 0 0 0-6.725 2.147l-23.492 45.72a5.018 5.018 0 0 0 2.155 6.746l11.861 6.143c4.22-23.477 8.547-35.994 29.034-54.11l-12.833-6.647Z" fill="#F9F9F9"/><path id="bombP2" d="M437.462 80.576c-20.487 18.117-24.814 30.633-29.034 54.11l23.896 12.375.184-1.234c3.638-24.298 5.735-38.297 26.854-53.91l-21.9-11.341Z" fill="#EEE"/><path id="bombP3" d="M509.9 187.235a4.98 4.98 0 0 0 6.725-2.148l23.492-45.719a5.02 5.02 0 0 0-2.155-6.747l-24.455-12.665-40.289-20.864-13.856-7.175c-21.119 15.613-23.216 29.612-26.854 53.91l-.184 1.234 13.198 6.835 37.769 19.559 26.609 13.78Z" fill="#E2E2E2"/><path id="bombP4" d="M350.766 651.376c149.336 0 270.396-121.467 270.396-271.303 0-16.387-1.448-32.434-4.223-48.021-92.372 275.041-223.964 268.857-481.224 212.506 49.404 64.927 127.352 106.818 215.051 106.818Z" fill="#E2E2E2"/><path id="bombP5" fill-rule="evenodd" clip-rule="evenodd" d="M135.715 544.558C100.993 498.926 80.37 441.916 80.37 380.073c0-149.836 121.061-271.302 270.396-271.302 92.307 0 173.812 46.409 222.6 117.24C586.281 522.502 438.2 529.627 211.853 540.518c-24.498 1.178-49.912 2.401-76.138 4.04Z" fill="#F9F9F9"/><path id="bombP6" d="M135.715 544.558c257.26 56.351 388.852 62.535 481.224-212.506-6.913-38.838-22.064-74.813-43.573-106.041C586.281 522.502 438.2 529.627 211.853 540.518c-24.498 1.178-49.912 2.401-76.138 4.04Z" fill="#EDEDED"/><path id="bombP7" d="M334.467 191.822c-14.522 22.459-39.41 23.105-63.263 7.577-12.489-20.195-14.522-24.442 0-46.9 14.522-22.459 63.874-23.663 87.728-8.136 23.853 15.528-9.943 25.001-24.465 47.459Z" fill="#fff"/></g></svg>