<?xml-stylesheet type="text/css" href="app.77f0d545.css"?><svg class="slider-tomato" viewBox="0 0 700 656" fill="none" xmlns="http://www.w3.org/2000/svg"><g class="bomb-pomo"><path d="M510.724 86.796c3.91-.38 6.476-4.781 4.513-8.196l-1.548-2.694c-.875-1.522-2.478-2.473-4.228-2.415-2.764.09-7.236.374-11.929 1.233-.399 4.713-.087 7.629 1.788 11.35a33.71 33.71 0 0 0 1.453 2.567c3.275-.99 6.82-1.542 9.951-1.845Z" fill="#000"/><path d="M473.85 113.05c2.876 2.749 7.812 1.219 9.032-2.572 2.092-6.495 5.691-14.799 11.205-18.742 1.874-1.34 4.202-2.344 6.686-3.095a33.71 33.71 0 0 1-1.453-2.568c-9.915 1.584-15.045 9.491-15.863 13.384-.752 3.577-1.734 6.099-4.756 8.713-.546.471-1.209.797-1.922.893-3.141.42-4.849-.904-7.522-2.978l-.386-.299c-.145.637-.291 1.29-.441 1.964l-.002.007-.02.092 5.442 5.201Z" fill="#BA9A43"/><path d="M497.532 74.724c-4.974.911-10.196 2.47-13.894 5.131-.233.168-.45.367-.645.578-10.388 11.237-12.176 16.797-14.122 25.353l.386.299c2.673 2.074 4.381 3.398 7.522 2.978.713-.096 1.376-.422 1.922-.893 3.022-2.614 4.004-5.136 4.756-8.713.818-3.893 5.948-11.8 15.863-13.384-1.875-3.72-2.187-6.636-1.788-11.349Z" fill="#E9CD7A"/><path d="m489.966 9.355 30.392 43.03 5.632-47.112 17.123 47.112 70.276-47.112-61.742 65.663 55.044 2.314-55.044 14.097c13.037 33.058 38.685 99.89 36.978 102.744-1.707 2.854-37.215-61.599-54.756-94.183l-13.511 24.26-9.245-44.951-53.209-4.281 32.062-7.409-85.682-50.303 98.949 43.117-13.267-46.986Z" fill="#FFD01E"/><path d="M424.629 74.578a4.98 4.98 0 0 0-6.725 2.148l-23.492 45.719a5.02 5.02 0 0 0 2.155 6.747l11.861 6.143c4.22-23.477 8.547-35.994 29.034-54.11l-12.833-6.647Z" fill="#666B6B"/><path d="M437.462 81.224c-20.487 18.117-24.814 30.634-29.034 54.111l23.896 12.374.184-1.233c3.638-24.299 5.735-38.298 26.854-53.91l-21.9-11.342Z" fill="#244142"/><path d="M509.9 187.883a4.98 4.98 0 0 0 6.725-2.148l23.492-45.719a5.019 5.019 0 0 0-2.155-6.746l-24.455-12.665-40.289-20.864-13.856-7.176c-21.119 15.613-23.216 29.612-26.854 53.911l-.184 1.233 13.198 6.835 37.769 19.56 26.609 13.779ZM350.766 652.024c149.336 0 270.396-121.466 270.396-271.302 0-16.387-1.448-32.435-4.223-48.021-92.372 275.04-223.964 268.857-481.224 212.505 49.404 64.927 127.352 106.818 215.051 106.818Z" fill="#142E2F"/><path fill-rule="evenodd" clip-rule="evenodd" d="M135.715 545.206C100.993 499.575 80.37 442.565 80.37 380.722c0-149.836 121.061-271.303 270.396-271.303 92.307 0 173.812 46.409 222.6 117.241C586.281 523.15 438.2 530.275 211.853 541.166c-24.498 1.179-49.912 2.402-76.138 4.04Z" fill="#2D4F51"/><path d="M135.715 545.206c257.26 56.352 388.852 62.535 481.224-212.505-6.913-38.838-22.064-74.813-43.573-106.041C586.281 523.15 438.2 530.275 211.853 541.166c-24.498 1.179-49.912 2.402-76.138 4.04Z" fill="#244142"/><path d="M334.467 192.471c-14.522 22.458-39.41 23.104-63.263 7.577-12.489-20.196-14.522-24.442 0-46.901 14.522-22.458 63.874-23.663 87.728-8.135 23.853 15.527-9.943 25.001-24.465 47.459Z" fill="#666B6B"/><text class="timer-text" x="50%" y="65%" style="fill:#aad9dc;font-family:Neucha,sans-serif;font-size:11.5rem!important" text-anchor="middle"/></g></svg>