<?xml-stylesheet type="text/css" href="app.178e0c90.css"?><svg class="slider-tomato" viewBox="0 0 700 656" xmlns="http://www.w3.org/2000/svg"><g class="green-tomato"><path fill="#0d100d" d="M247.52 12.32c1.03-5.58 9.28-5.92 12.73-2.59 6.76 8.16 9.35 18.91 15.77 27.3 3.07 1.42 6.68-.04 9.96.14 21.7-.43 43.17 3.12 64.68 5.52 5.86-8.35 16-16.16 26.75-13.11 11.14 3.32 23.23 5.19 32.79 12.24 3.93 2.56 3.8 7.59 4.37 11.71 17.15 5.56 34.85 9.36 52.04 14.86 13.76 5.27 24.97-12.33 38.7-7.67 5.21 6.19-.45 13.91-5.38 18.26 18.5 6.8 36.84 14.07 55.42 20.6 9.82 1.51 19.83-4.37 29.71-1.65 5.6 3.37 3.26 11.81-.91 15.53 11.74 7.24 23.23 14.95 34.51 22.89 11.02 10.97 22.91 21.32 31.73 34.26 6.05 9.1 12.62 17.95 16.91 28.07 6.05 14.38 14.25 28.02 17.66 43.37 5.34 25.29 10.78 50.99 10.03 76.97-1.96 10.23-.44 20.69-2.21 30.93-2.1 15.66-3.79 31.37-5.99 47.01-3.02 12.97-8.16 25.34-11.72 38.17-5.66 19.94-15.89 38.11-23.74 57.2-3.8 10.05-11.27 17.92-17.78 26.23-11.05 13.93-22.45 27.58-33.43 41.57-6.85 9.49-15.91 17.09-25.94 23.03-16.46 9.84-32.08 21.09-49.19 29.82-17.94 8.56-37.44 12.88-56.39 18.56-24.51 7.93-50.22 10.95-75.61 14.62-26.72 4.64-54.02 6.29-81 3.62-4.65-.11-9.31.8-13.94.04-19.37-3.99-39.16-6.09-58.19-11.71-25.82-6.75-50.17-18-73.86-30.12-6.49-2.95-13.02-5.93-18.75-10.22-17.15-13.19-34.23-26.49-51.35-39.72-10.33-11-20.16-22.49-30.33-33.66-14-15.64-24.35-34.15-32.58-53.38-7.53-14.81-14.98-29.88-18.62-46.2-4.07-18.43-6.29-37.22-9.19-55.86-1.73-9.23-.75-18.63-.95-27.95-1.6-29.7 3.46-59.24 8.43-88.41 3.87-14.93 8.79-29.59 13.72-44.21 10.84-30.73 29.24-58.15 49.9-83.11 9.14-8.51 17.81-17.57 27.48-25.51 15.54-13.21 33.41-23.18 51.07-33.22-.13-6.52-1.36-13.04-.79-19.55.41-5.25 7.71-4.92 11.23-3.2 4.43 3.89 5.29 10.19 7.84 15.27 23.19-9.51 47.78-14.73 72.49-18.45 1.31-9.39-.23-19 1.92-28.29m11.62 19.79c.96 1.39 1.92 2.79 2.92 4.16-1.74-.53-3.6-.81-5.31-.01 1.11 2.9 1.79 5.93 2.09 9.02-1.45.11-2.9.21-4.34.34-1.9 2.24-4.31 4-7.27 4.46.04.96.08 1.92.13 2.88-5.55-.3-11.19-.15-16.4 1.99-2.59 1.34-5.17.05-7.29-1.48-.12.05-.37.15-.5.2-.39 4.3-4.48 3.82-7.73 3.73-2.46 1.9-5.44 2.8-8.46 1.74 1.13-.89 2.25-1.79 3.37-2.71-2.28.15-4.55.31-6.82.41.8 1.46 2.39 2.81 1.98 4.64-2.67.12-5.3-.34-7.91-.82.37 1.22.74 2.44 1.1 3.67a13.23 13.23 0 0 1-6.24-3.28c-.44.2-1.32.6-1.76.81.67 1.2 1.34 2.41 2.02 3.62a130.3 130.3 0 0 1-10.63 2.71c1.4-1.63 2.91-3.18 4.31-4.82-5.27 1.42-10.66 2.87-15.21 6.01-1.67-1.2-3.32-2.43-4.99-3.61-.98 4.15-4.71 10.33 1.16 12.34.2.27.62.83.82 1.1-1.35.04-2.7.06-4.04.08.96 6.54 3.68 12.63 4.8 19.13-5.54-7.18-6.47-16.66-7.11-25.42-4.38 1.03-8.1 3.6-11.16 6.83.99.56 1.97 1.11 2.96 1.67-3.02 1.26-6.13 2.8-7.69 5.87-32.81 18.74-61.27 45.06-81.86 76.78-23.95 36.61-37.99 79.29-43.47 122.49-11.76 70.79.55 146.45 39.17 207.52 51.74 81.64 144.4 133.08 239.71 142.24 15.02 2.25 30.35.71 45.5 1.11 9.13.66 17.89-2.85 27.03-2.11 66.93-7.31 136.8-20.34 192.32-61.01 28.58-20.66 51.72-48.24 69.53-78.54 21.45-35.88 35.83-75.78 43.23-116.88 2.54-19.01 6.33-38.1 5.2-57.39.7-9.02.5-18.2-1.01-27.14-2.32-30.82-10.6-61.4-24.89-88.88-14.91-29.1-37.72-53.83-64.56-72.33-.9-1.71-1.55-3.53-2.45-5.23-7.62-.27-10.67-7.74-15.45-12.34-.68-3.02-.01-6.16.13-9.21-4.64 1.27-11.71.08-13 6.13-.95.12-1.88.25-2.82.37.49-1.09.98-2.18 1.48-3.27-.14-.22-.41-.66-.55-.88-5.15 1.22-10.43-.36-14.7-3.3-4.04-2.85-9.19-2.57-13.75-3.95-8.24-2.42-16.36-5.23-24.71-7.21 1.75-.74 3.49-1.49 5.23-2.27-3.22-1.79-6.49.4-9.78.34-5.22-1.76-10.41-3.66-15.92-4.31 3.89-3.03 8.4-.42 12.36 1.02-2.99-2.51-6.1-4.95-8.54-8.01-2.51-2.74 1.32-5.79 2.39-8.33-1.76.21-3.52.41-5.27.62-.03 1.54-.05 3.07-.07 4.61-.95-1.16-1.91-2.33-2.86-3.48-2.53 1.53-4.83 3.47-7.48 4.8-5.05.84-9.83-1.56-14.32-3.56.17 1.92.38 3.83.55 5.74-3.74-3.67-8.69-5.49-13.84-5.95.38-.74.76-1.48 1.15-2.21-2.97.3-5.96.44-8.94.41 1.03-.96 2.08-1.91 3.14-2.85-3.74.57-7.52.91-11.29 1.1.01-1.33.02-2.67.04-4-4.91-3.65-10.49 1.01-15.69-1-3.08-.99-6.31-1.29-9.53-1.1-.48 1.98-.96 3.96-1.39 5.95-.88-2.57-2.34-4.86-4.43-6.59-.11-.5-.34-1.51-.45-2.01 2.75.84 5.67 1.39 8.48.4-2.18-2.15-4.54-4.1-7.09-5.77-.14-.86-.28-1.71-.4-2.56 1.12.4 2.25.8 3.38 1.22-.51-2.49-.06-5.92-2.87-7.11-6.26-3.31-13.01-5.61-19.8-7.55 1.18-.24 2.37-.5 3.57-.77-5.27-1.73-10.85-.32-16.24-1.05-3.87 6.07-12.5 6.41-15.3 13.26-4-3.86-8.72.96-13.38.05.48-.93.97-1.87 1.46-2.81-6.75 1.12-13.6.22-20.39.39.35-.68.69-1.36 1.05-2.04-14.26-.3-28.52.46-42.77-.04-.12-1-.23-2-.34-2.99-1.76.43-3.5.88-5.24 1.34-3.69-2.37-6.85-5.4-9.74-8.68-.95 1.09-1.88 2.19-2.8 3.3.73-2.4 1.55-4.78 2.34-7.16-1.29-1.34-2.57-2.67-3.86-3.99-.5.35-1.5 1.06-2 1.41Z"/><path fill="#0c1c0c" d="M259.14 32.11c.5-.35 1.5-1.06 2-1.41 1.29 1.32 2.57 2.65 3.86 3.99-.79 2.38-1.61 4.76-2.34 7.16.92-1.11 1.85-2.21 2.8-3.3 2.89 3.28 6.05 6.31 9.74 8.68 1.74-.46 3.48-.91 5.24-1.34.11.99.22 1.99.34 2.99 14.25.5 28.51-.26 42.77.04-.36.68-.7 1.36-1.05 2.04 6.79-.17 13.64.73 20.39-.39-.49.94-.98 1.88-1.46 2.81 4.66.91 9.38-3.91 13.38-.05 2.8-6.85 11.43-7.19 15.3-13.26 5.39.73 10.97-.68 16.24 1.05-1.2.27-2.39.53-3.57.77 6.79 1.94 13.54 4.24 19.8 7.55 2.81 1.19 2.36 4.62 2.87 7.11-1.13-.42-2.26-.82-3.38-1.22.12.85.26 1.7.4 2.56 2.55 1.67 4.91 3.62 7.09 5.77-2.81.99-5.73.44-8.48-.4.11.5.34 1.51.45 2.01 2.09 1.73 3.55 4.02 4.43 6.59.43-1.99.91-3.97 1.39-5.95 3.22-.19 6.45.11 9.53 1.1 5.2 2.01 10.78-2.65 15.69 1-.02 1.33-.03 2.67-.04 4 3.77-.19 7.55-.53 11.29-1.1-1.06.94-2.11 1.89-3.14 2.85 2.98.03 5.97-.11 8.94-.41-.39.73-.77 1.47-1.15 2.21 5.15.46 10.1 2.28 13.84 5.95-.17-1.91-.38-3.82-.55-5.74 4.49 2 9.27 4.4 14.32 3.56 2.65-1.33 4.95-3.27 7.48-4.8.95 1.15 1.91 2.32 2.86 3.48.02-1.54.04-3.07.07-4.61 1.75-.21 3.51-.41 5.27-.62-1.07 2.54-4.9 5.59-2.39 8.33 2.44 3.06 5.55 5.5 8.54 8.01-3.96-1.44-8.47-4.05-12.36-1.02 5.51.65 10.7 2.55 15.92 4.31 3.29.06 6.56-2.13 9.78-.34-1.74.78-3.48 1.53-5.23 2.27 8.35 1.98 16.47 4.79 24.71 7.21 4.56 1.38 9.71 1.1 13.75 3.95 4.27 2.94 9.55 4.52 14.7 3.3.14.22.41.66.55.88-.5 1.09-.99 2.18-1.48 3.27.94-.12 1.87-.25 2.82-.37 1.29-6.05 8.36-4.86 13-6.13-.14 3.05-.81 6.19-.13 9.21 4.78 4.6 7.83 12.07 15.45 12.34.9 1.7 1.55 3.52 2.45 5.23-7.17-4.61-14.35-9.26-21.94-13.17-5.7-3.16-11.7.92-17.14 2.68-27.07 9.62-55.3 15.68-83.74 19.5-15.25 2.26-31.55 3.12-44.85 11.77 9.01 7.5 23.24 6.65 29.97 16.97-1.85 1.85-3.47 4.09-5.89 5.23-38.73 9.06-77.56-4.26-116.25-6.57-17.64.35-37.27 3.92-49.35 17.98-3.34 4.91-7.57 11.16-14.45 8.21-1.27-14.32 7.34-27.23 14.01-39.27-39.49 1.49-81.32-12.64-106.72-44.02-7.79-9.19-11.89-20.62-15.78-31.82-4.77 1.82-9.34 4.12-13.77 6.65 1.56-3.07 4.67-4.61 7.69-5.87-.99-.56-1.97-1.11-2.96-1.67 3.06-3.23 6.78-5.8 11.16-6.83.64 8.76 1.57 18.24 7.11 25.42-1.12-6.5-3.84-12.59-4.8-19.13 1.34-.02 2.69-.04 4.04-.08-.2-.27-.62-.83-.82-1.1-5.87-2.01-2.14-8.19-1.16-12.34 1.67 1.18 3.32 2.41 4.99 3.61 4.55-3.14 9.94-4.59 15.21-6.01-1.4 1.64-2.91 3.19-4.31 4.82a130.3 130.3 0 0 0 10.63-2.71c-.68-1.21-1.35-2.42-2.02-3.62.44-.21 1.32-.61 1.76-.81a13.23 13.23 0 0 0 6.24 3.28c-.36-1.23-.73-2.45-1.1-3.67 2.61.48 5.24.94 7.91.82.41-1.83-1.18-3.18-1.98-4.64 2.27-.1 4.54-.26 6.82-.41-1.12.92-2.24 1.82-3.37 2.71 3.02 1.06 6 .16 8.46-1.74 3.25.09 7.34.57 7.73-3.73.13-.05.38-.15.5-.2 2.12 1.53 4.7 2.82 7.29 1.48 5.21-2.14 10.85-2.29 16.4-1.99-.05-.96-.09-1.92-.13-2.88 2.96-.46 5.37-2.22 7.27-4.46 1.44-.13 2.89-.23 4.34-.34-.3-3.09-.98-6.12-2.09-9.02 1.71-.8 3.57-.52 5.31.01-1-1.37-1.96-2.77-2.92-4.16M370.65 43.6c-9.6 6.01-16.95 15.27-21.62 25.51-7.32 16.95-11.83 35.25-12.59 53.71-.33 3.13-3.44 5.43-6.41 5.76-3.37-.49-4.81-3.94-6.23-6.58-1.2-8.24-5.98-15.39-10.91-21.89-12.95-15.33-29.55-27.28-41.47-43.54-3.46-4.25-5.93-9.21-9.61-13.29-.46 5.14 1.32 10.03 3.06 14.77 7.59 20.22 17.61 39.44 27.45 58.63 3.29 6.06 4.92 16.66-3.13 19.56-8.4.74-16.78-1.67-25.18-2.17-24.37-1.62-46.46-13.54-66.5-26.66-7.98-4.93-14.42-11.83-21.79-17.53 1.61 5.84 5.12 10.86 8.77 15.6 26.17 32.16 71.18 44.7 111.16 37.19 4.24-1.56 7.65 4.01 6.57 7.62-3.76 5.88-10.06 9.96-12.48 16.77 8.49-2.76 16.65-6.75 25.67-7.61 35.98-4.92 70.98 9.97 106.98 8.16-3.86-4.25-10.16-4.86-14.04-8.98-3.06-5.7 3.39-9.97 7.36-12.86 16.51-11.74 37.33-12.73 56.67-15.5 14.42-2.76 29.31-3.81 43.16-8.9-7.59-1.54-14.97 1.65-22.54 1.68-19 2.14-38.04 3.61-56.98 6.16-4.15-.03-9.98 1.47-12.59-2.74-2.62-3.7 1.63-7.62 4.72-9.28 15.7-8.24 31.09-17.6 44.2-29.61-3.03.6-6.02 1.47-8.77 2.9-19.02 9.52-38.8 17.58-57.62 27.46-3.81 1.47-7.53 3.18-11.17 5.03-7.12-3.73-5.54-12.7-5.13-19.33 1.14-17.94 5.71-35.55 12.84-52.02-6.38-4.19-13.72-6.66-21.09-8.47-3.51-.71-7.54-1.74-10.76.45m-88.79 6.94c1.07 2.04 2.21 4.08 3.79 5.79 13.96 14.81 29.86 27.8 42.31 43.98 2.13-15.97 7.9-31.42 15.78-45.43-11-3.21-22.51-2.02-33.68-4.16-9.38-.59-18.81-.45-28.2-.18M178.03 72.01c2.48 6 7.25 10.68 11.84 15.13 13.64 11.71 29.28 21.02 45.67 28.34 14.94 6.96 31.57 6.99 47.54 9.34-10.35-22.35-22.52-44.04-30.43-67.48-.68-4.27-5.6-2.97-8.7-2.98-22.61 3.04-44.71 9.3-65.92 17.65m230.42-4.99c-3.38 13-7.91 26.22-6.78 39.83 18.83-9.12 38.2-17.15 56.8-26.72-16.46-5.1-33.14-9.66-50.02-13.11m75.1 26.55c-8.51 7.62-18.04 13.93-27.06 20.88 5.98.45 12.01.23 17.88-1.08 20.98-2.08 42.14-3.55 62.85-7.77-15.14-5.3-30.78-9.08-45.68-15.13-3.22-1.98-5.73 1.25-7.99 3.1ZM91.35 339.22c1.08-4.76 8.38-5.01 9.8-.34 1.44 6.96-1.14 13.93-1.55 20.88-.65 21.79-.8 43.86 4.64 65.14 8.13 38.96 29.95 76.07 63.19 98.68 2.72 1.6 4.07 5.23 2.14 7.97-2.41 3.38-7.39 2.37-10.28.19-22.51-16.09-39.86-38.42-52.24-63.02-12.33-27.48-19.2-57.57-18.57-87.74.36-13.93-.75-28.16 2.87-41.76Z"/><path fill="#235023" d="M370.65 43.6c3.22-2.19 7.25-1.16 10.76-.45 7.37 1.81 14.71 4.28 21.09 8.47-7.13 16.47-11.7 34.08-12.84 52.02-.41 6.63-1.99 15.6 5.13 19.33 3.64-1.85 7.36-3.56 11.17-5.03-5.38 4.91-9.78 10.95-12.42 17.76 4.15-.74 8.3-1.46 12.47-2.07-4.47 3.69-8.95 7.38-13.1 11.42 1.88 2.96 3.72 5.95 5.45 9.01-9.74-.7-19.3-5.52-29.1-2.55-9.49 2.74-19.37-.64-28.9 1.65-7.06 1.59-14.23 2.72-21.47 2.98 3.78-4.05 7.87-7.79 11.82-11.66-4.13-2.31-8.84-3.05-13.5-3.39 3.53-3.35 6.93-6.83 10.03-10.58-1.48-2.69-2.78-5.5-3.44-8.51 1.42 2.64 2.86 6.09 6.23 6.58 2.97-.33 6.08-2.63 6.41-5.76.76-18.46 5.27-36.76 12.59-53.71 4.67-10.24 12.02-19.5 21.62-25.51m-33.31 87.82c-5.54 2.34-2.59 10.21 1.2 13.02 10.21 9.92 25.57 7.56 37.99 4.15 4.73-1.68 7.96-7.07 5.72-11.92-2.79-2.14-6.67-1.79-9.53.03-6.04 3.84-13.55 3.58-20.36 2.67-6.03-.88-8.3-10.06-15.02-7.95Z"/><path fill="#2d692d" d="M261.81 43.28c3.68 4.08 6.15 9.04 9.61 13.29 11.92 16.26 28.52 28.21 41.47 43.54 4.93 6.5 9.71 13.65 10.91 21.89.66 3.01 1.96 5.82 3.44 8.51-3.1 3.75-6.5 7.23-10.03 10.58 4.66.34 9.37 1.08 13.5 3.39-3.95 3.87-8.04 7.61-11.82 11.66 7.24-.26 14.41-1.39 21.47-2.98 9.53-2.29 19.41 1.09 28.9-1.65 9.8-2.97 19.36 1.85 29.1 2.55-1.73-3.06-3.57-6.05-5.45-9.01 4.15-4.04 8.63-7.73 13.1-11.42-4.17.61-8.32 1.33-12.47 2.07 2.64-6.81 7.04-12.85 12.42-17.76 18.82-9.88 38.6-17.94 57.62-27.46 2.75-1.43 5.74-2.3 8.77-2.9-13.11 12.01-28.5 21.37-44.2 29.61-3.09 1.66-7.34 5.58-4.72 9.28 2.61 4.21 8.44 2.71 12.59 2.74 18.94-2.55 37.98-4.02 56.98-6.16 7.57-.03 14.95-3.22 22.54-1.68-13.85 5.09-28.74 6.14-43.16 8.9-19.34 2.77-40.16 3.76-56.67 15.5-3.97 2.89-10.42 7.16-7.36 12.86 3.88 4.12 10.18 4.73 14.04 8.98-36 1.81-71-13.08-106.98-8.16-9.02.86-17.18 4.85-25.67 7.61 2.42-6.81 8.72-10.89 12.48-16.77 1.08-3.61-2.33-9.18-6.57-7.62-39.98 7.51-84.99-5.03-111.16-37.19-3.65-4.74-7.16-9.76-8.77-15.6 7.37 5.7 13.81 12.6 21.79 17.53 20.04 13.12 42.13 25.04 66.5 26.66 8.4.5 16.78 2.91 25.18 2.17 8.05-2.9 6.42-13.5 3.13-19.56-9.84-19.19-19.86-38.41-27.45-58.63-1.74-4.74-3.52-9.63-3.06-14.77Z"/><path fill="#62e462" d="M281.86 50.54c9.39-.27 18.82-.41 28.2.18 11.17 2.14 22.68.95 33.68 4.16-7.88 14.01-13.65 29.46-15.78 45.43-12.45-16.18-28.35-29.17-42.31-43.98-1.58-1.71-2.72-3.75-3.79-5.79ZM408.45 67.02c16.88 3.45 33.56 8.01 50.02 13.11-18.6 9.57-37.97 17.6-56.8 26.72-1.13-13.61 3.4-26.83 6.78-39.83Z"/><path fill="#62e462" d="M145.94 87.37c4.43-2.53 9-4.83 13.77-6.65 3.89 11.2 7.99 22.63 15.78 31.82 25.4 31.38 67.23 45.51 106.72 44.02-6.67 12.04-15.28 24.95-14.01 39.27 6.88 2.95 11.11-3.3 14.45-8.21 12.08-14.06 31.71-17.63 49.35-17.98 38.69 2.31 77.52 15.63 116.25 6.57 2.42-1.14 4.04-3.38 5.89-5.23-6.73-10.32-20.96-9.47-29.97-16.97 13.3-8.65 29.6-9.51 44.85-11.77 28.44-3.82 56.67-9.88 83.74-19.5 5.44-1.76 11.44-5.84 17.14-2.68 7.59 3.91 14.77 8.56 21.94 13.17 26.84 18.5 49.65 43.23 64.56 72.33 14.29 27.48 22.57 58.06 24.89 88.88 1.51 8.94 1.71 18.12 1.01 27.14-4.17 15.29-10.71 29.8-14.7 45.14-9.14 27.55-20.38 55.15-39.52 77.4-2.59 2.88-6 4.81-9.34 6.68-3.61-6.97-2.81-15.04-4.07-22.56-2.48-40.42-8.89-80.94-22.83-119.07-15.21-35.24-40.05-66.47-71.45-88.61-2.9-2.51-6.8-2.63-10.42-2.58a36.64 36.64 0 0 0 3.33 15.73c3.77 8.47 4.93 17.81 8.7 26.29 5.19 12.35 7.25 25.69 11.63 38.31 9.76 36.76 12.46 77.15-2.15 113.06-3.79 15.04-11.19 28.82-18.84 42.2-6.85 12.66-18.49 21.56-27.78 32.27-15.33 19.61-36.99 34.04-60.74 41.34-57.79 20.48-124.4 12.95-176.89-18.46-23.84-14.67-37.54-40.37-49.1-64.93-4.23-7.34-6.72-15.45-9.71-23.32-11.68-25.3-19.89-51.98-31.58-77.22-3.38-9.12-6.74-19.21-14.61-25.46-6.1-3.42-10.48 3.99-12.78 8.58-9.2 19.29-12.26 40.77-14.12 61.85-2.83 21.26-.76 42.74-1.28 64.07-4.45-8.71-4.5-19.12-9.81-27.39-5.44-21.28-5.29-43.35-4.64-65.14.41-6.95 2.99-13.92 1.55-20.88-1.42-4.67-8.72-4.42-9.8.34-3.62 13.6-2.51 27.83-2.87 41.76-.63 30.17 6.24 60.26 18.57 87.74 1.96 9.02 8.03 16.2 12.05 24.31-2.7 3.03-6.1 8.11-10.81 5.82-11.35-5.01-18.13-16.13-25.86-25.27-32.81-51.17-49.95-110.51-61.11-169.78-.47 8.47-.24 17.02-1.93 25.39-.19-9.25-1.14-18.63.9-27.75 1.1-4.87.78-9.87.32-14.8 5.48-43.2 19.52-85.88 43.47-122.49 20.59-31.72 49.05-58.04 81.86-76.78M414.39 220.4c-23.11 2.45-45.93 11.49-69.39 7.64-10.32-1.29-20.67-2.33-30.92-4.1-11.13-1.81-23.27 3.54-28.42 13.79-11.45 20.61-8.09 45.65-1.65 67.28 6.4 21.84 26.66 37.13 48.27 41.9 10.35 1.52 20.9 4.43 31.33 1.74 20.09-1.69 38.48-10.42 56.71-18.31 7.61-3.59 15.55-7.4 20.89-14.13 5.97-7.36 8.52-16.88 8.88-26.22 2.38-17.05-1.16-34.1-3.11-51.01-.56-6.64-3.05-14.34-9.61-17.25-7.38-2.44-15.35-1.98-22.98-1.33M119.5 250.45c-13.03 16.39-22.34 35.96-26.25 56.55-1.13 5.64 5.24 6.32 9.25 5.6 5.06-17.58 10.61-35.45 21.92-50.19 2.1-3.4 7.13-7.52 3.96-11.73-1.75-3.4-6.84-3.29-8.88-.23Z"/><path fill="#62e462" d="M483.55 93.57c2.26-1.85 4.77-5.08 7.99-3.1 14.9 6.05 30.54 9.83 45.68 15.13-20.71 4.22-41.87 5.69-62.85 7.77-5.87 1.31-11.9 1.53-17.88 1.08 9.02-6.95 18.55-13.26 27.06-20.88Z"/><path fill="#62e362" d="M178.03 72.01c21.21-8.35 43.31-14.61 65.92-17.65 3.1.01 8.02-1.29 8.7 2.98 7.91 23.44 20.08 45.13 30.43 67.48-15.97-2.35-32.6-2.38-47.54-9.34-16.39-7.32-32.03-16.63-45.67-28.34-4.59-4.45-9.36-9.13-11.84-15.13Z"/><path fill="#0c1d0c" d="M337.34 131.42c6.72-2.11 8.99 7.07 15.02 7.95 6.81.91 14.32 1.17 20.36-2.67 2.86-1.82 6.74-2.17 9.53-.03 2.24 4.85-.99 10.24-5.72 11.92-12.42 3.41-27.78 5.77-37.99-4.15-3.79-2.81-6.74-10.68-1.2-13.02Z"/><path fill="#5fdd5f" d="M509.97 217.98c3.62-.05 7.52.07 10.42 2.58 31.4 22.14 56.24 53.37 71.45 88.61 13.94 38.13 20.35 78.65 22.83 119.07 1.26 7.52.46 15.59 4.07 22.56 3.34-1.87 6.75-3.8 9.34-6.68 19.14-22.25 30.38-49.85 39.52-77.4 3.99-15.34 10.53-29.85 14.7-45.14 1.13 19.29-2.66 38.38-5.2 57.39-7.4 41.1-21.78 81-43.23 116.88-17.81 30.3-40.95 57.88-69.53 78.54-55.52 40.67-125.39 53.7-192.32 61.01-9.14-.74-17.9 2.77-27.03 2.11-15.15-.4-30.48 1.14-45.5-1.11-95.31-9.16-187.97-60.6-239.71-142.24-38.62-61.07-50.93-136.73-39.17-207.52.46 4.93.78 9.93-.32 14.8-2.04 9.12-1.09 18.5-.9 27.75 1.69-8.37 1.46-16.92 1.93-25.39 11.16 59.27 28.3 118.61 61.11 169.78 7.73 9.14 14.51 20.26 25.86 25.27 4.71 2.29 8.11-2.79 10.81-5.82-4.02-8.11-10.09-15.29-12.05-24.31 12.38 24.6 29.73 46.93 52.24 63.02 2.89 2.18 7.87 3.19 10.28-.19 1.93-2.74.58-6.37-2.14-7.97-33.24-22.61-55.06-59.72-63.19-98.68 5.31 8.27 5.36 18.68 9.81 27.39.52-21.33-1.55-42.81 1.28-64.07 1.86-21.08 4.92-42.56 14.12-61.85 2.3-4.59 6.68-12 12.78-8.58 7.87 6.25 11.23 16.34 14.61 25.46 11.69 25.24 19.9 51.92 31.58 77.22 2.99 7.87 5.48 15.98 9.71 23.32 11.56 24.56 25.26 50.26 49.1 64.93 52.49 31.41 119.1 38.94 176.89 18.46 23.75-7.3 45.41-21.73 60.74-41.34 9.29-10.71 20.93-19.61 27.78-32.27 7.65-13.38 15.05-27.16 18.84-42.2 14.61-35.91 11.91-76.3 2.15-113.06-4.38-12.62-6.44-25.96-11.63-38.31-3.77-8.48-4.93-17.82-8.7-26.29a36.64 36.64 0 0 1-3.33-15.73Z"/><path fill="#66ec66" d="M414.39 220.4c7.63-.65 15.6-1.11 22.98 1.33 6.56 2.91 9.05 10.61 9.61 17.25 1.95 16.91 5.49 33.96 3.11 51.01-.36 9.34-2.91 18.86-8.88 26.22-5.34 6.73-13.28 10.54-20.89 14.13-18.23 7.89-36.62 16.62-56.71 18.31-10.43 2.69-20.98-.22-31.33-1.74-21.61-4.77-41.87-20.06-48.27-41.9-6.44-21.63-9.8-46.67 1.65-67.28 5.15-10.25 17.29-15.6 28.42-13.79 10.25 1.77 20.6 2.81 30.92 4.1 23.46 3.85 46.28-5.19 69.39-7.64Z"/><path fill="#0c1b0c" d="M119.5 250.45c2.04-3.06 7.13-3.17 8.88.23 3.17 4.21-1.86 8.33-3.96 11.73-11.31 14.74-16.86 32.61-21.92 50.19-4.01.72-10.38.04-9.25-5.6 3.91-20.59 13.22-40.16 26.25-56.55Z"/><text class="timer-text" x="50%" y="60%" text-anchor="middle" style="font-family:Neucha,sans-serif"/></g></svg>