<?xml-stylesheet type="text/css" href="app.b4a62fa8.css"?><svg class="slider-tomato" viewBox="0 0 700 656" xmlns="http://www.w3.org/2000/svg"><g><path id="#110e0cff" fill="#110e0c" opacity="1" d="M247.31 13.09c.68-6.91 11.41-7.18 14.3-1.72 5.49 8.34 9.12 17.73 14.3 26.27 25.02-2.03 49.95 2.31 74.77 5.06 5.82-8.37 16-16.18 26.74-13.13 11.13 3.35 23.22 5.19 32.78 12.25 3.93 2.57 3.85 7.57 4.34 11.71 17.17 5.53 34.86 9.37 52.06 14.86 13.78 5.28 25-12.35 38.74-7.68 5.22 6.21-.49 13.96-5.44 18.31 17.02 6.28 34 12.67 50.96 19.11 11.01 5.26 22.86-3.3 34.2-.2 5.59 3.3 3.42 11.9-1 15.42 11.74 7.34 23.3 15.02 34.59 23.01 11.21 11.12 23.27 21.65 32.15 34.84 5.75 8.71 12.05 17.15 16.19 26.81 5.28 12.32 11.8 24.13 16.06 36.87 2.84 9.74 4.88 19.7 6.41 29.73 4.06 20.83 7.09 42.16 4.51 63.38.21 20.5-4.04 40.68-6.07 61.02-1.45 15.5-8.37 29.71-12.37 44.6-5.64 20.51-16.12 39.15-24.2 58.72-3.81 10.04-11.27 17.92-17.78 26.23-10.9 13.75-22.15 27.21-32.99 41.01-6.84 9.48-15.73 17.27-25.78 23.21-16.44 9.84-32.07 21.05-49.12 29.86-17.86 8.7-37.36 13-56.29 18.67-28.96 9.38-59.45 12.1-89.38 16.82-18.48 3.41-37.33 2.57-56.01 2.84-8.86-1.62-17.85-.92-26.79-1.4-19.12-3.71-38.57-5.97-57.32-11.46-25.58-6.69-49.74-17.78-73.2-29.79-6.9-3.2-13.93-6.29-19.99-10.98-17.1-13.25-34.29-26.4-51.28-39.78-19.76-22.45-42.17-43.41-55.09-70.88-9.9-21.95-22.78-43.01-27.09-67.05-3.65-19.77-6.55-39.69-9.2-59.62.15-14 .44-28.03-.05-42.03 1.8-22.46 4.79-44.84 9.03-66.97 4.14-14.86 8.86-29.56 13.92-44.13 9.55-26.28 24.53-50.29 41.81-72.15 8.7-12.15 20.54-21.44 31.16-31.81 16.64-14.54 35.81-25.64 55-36.43-.45-7.27-1.37-14.65-.26-21.89 2.78-2.52 7.41-2.39 10.64-.85 4.37 3.91 5.39 10.09 7.62 15.27 8.04-2.41 15.75-5.77 23.73-8.35 16.11-4.42 32.58-7.38 49.04-10.09.33-9.17.21-18.41 1.65-27.49m32.1 78.55c4.59 11.05 12.51 20.71 15.14 32.53 1.48 5.51-1.94 13.14-8.52 12.26-17.74-2.25-36.11-2.6-52.82-9.7-21.47-9.5-42.21-21.62-58.51-38.76 3.16 10.63 10.37 19.51 18.3 27.04 17.13 15.51 39.12 25.52 61.96 28.8 13.85 1.25 27.94 1.41 41.66-1.12 3.82-.8 4.85 3.94 6.49 6.35-4.48 6.06-10.7 10.88-13.47 18.09 8.87-2.73 17.4-6.73 26.75-7.71 35.97-4.65 70.94 10.57 106.95 8.06-4.61-3.57-10.5-5.13-14.9-8.93-3.08-4.42 1.98-8.45 5.15-10.97 16.22-12.78 37.53-14.36 57.22-16.98 15.35-2.69 31.09-4.06 45.86-9.29-5.78-1.33-11.57.07-17.28 1-19.34 1.99-38.69 3.85-58.01 5.99-6.63.85-16.14 3.66-19.45-4.33 4.22-7.6 13.18-9.63 19.99-14.11 11.23-7.3 22.89-14.33 32.45-23.82-21.4 8.79-42.16 19.19-63.1 29.05-6.67 1.21-12.86 9.13-19.75 5.38-3.11-6.36-1.37-13.67-1.12-20.43.67-17.02 6.44-33.24 12.26-49.06-8.23-3.76-16.65-7.67-25.74-8.65-4.78-.7-9.04 2.13-12.41 5.17-7.69 7.04-13.79 15.86-17.36 25.68-6.46 15.95-10.17 32.98-11.03 50.15-1.37 7.18-11.14 5.13-12.15-1.26-2.3-12.79-11.11-23.1-20.09-31.95-16.48-15.19-33-30.96-43.65-50.97 1.84 18.83 11.89 35.4 19.18 52.49m2.09-41.12c13.17 18.68 33.54 31.24 46.08 50.56 3.1-16.1 8.05-32.03 16.36-46.25-9.96-3.4-20.58-1.74-30.73-4.11-10.54-.67-21.15-.41-31.71-.2M177.75 71.96c5.37 11.14 15.71 18.7 25.47 25.8 18.08 11.86 37.75 23.03 59.73 24.94 6.84.16 13.53 1.64 20.33 2.21-2.09-6.49-5.7-12.28-8.87-18.27-8.68-17.34-16.4-35.16-23.45-53.21-25.17 2.49-49.73 9.25-73.21 18.53m223.8 35.07c19.27-8.81 38.46-17.78 57.67-26.73-16.54-5.7-33.73-9.19-50.55-13.91-3.99 13.15-8.21 26.72-7.12 40.64m-331.4 48.14c-27.29 37.35-42.43 82.28-49.43 127.68-.34 7.45-2.84 14.64-2.48 22.16C8.76 384.56 32 468.95 85.84 529.14c51.54 58.96 125.93 96.16 203.22 106.3 19.79 3.34 39.95 1.89 59.94 2.03 8.44.46 16.56-2.73 25.02-2.09 46.82-5.3 94.1-13.1 137.81-31.52 28.98-11.77 55.72-29.06 78.2-50.82 47.72-48.11 76.96-112.61 88.12-178.99 2.36-18.44 5.65-36.91 4.17-55.59 1.27-11.21-.63-22.36-1.79-33.47-5.28-44.62-22.79-88.7-53.77-121.76-16.09-17.65-35.63-32-56.64-43.29-5.23-3.07-10.94.38-15.97 2.12-30.21 11-61.93 17.14-93.75 21.14-12.25 1.56-24.92 3.64-35.71 10-.06.45-.17 1.34-.23 1.79 7.81 4.59 16.74 6.77 24.83 10.75 3.28 1.37 4.64 5.91 1.89 8.47-4.41 4.04-10.76 2.72-16.17 3.69-10.87 2.22-22.16 1.98-33.06.15-22.75-1.67-45.15-6.81-67.91-8.7-15.99.04-33.02 2.63-46 12.71-5.47 3.73-8.28 9.94-12.81 14.59-2.28-.39-4.55-.81-6.82-1.23-.43-3.24-1.07-6.66.29-9.78 3.9-10.11 7.56-20.54 14.26-29.22-35.04 1.05-71.86-9.05-97.7-33.67-12.92-11.13-20.68-26.67-25.64-42.71-35.32 17.32-66.57 43.08-89.47 75.13m385.2-40.7c12.1 1.45 23.83-2.27 35.87-2.16 15.4-2.81 31.23-2.79 46.45-6.65-16.14-5.5-32.6-10.19-48.65-15.98-11.45 7.76-21.67 17.61-33.67 24.79Z"/><path id="#417c00ff" fill="#417c00" opacity="1" d="M279.41 91.64c-7.29-17.09-17.34-33.66-19.18-52.49 10.65 20.01 27.17 35.78 43.65 50.97 8.98 8.85 17.79 19.16 20.09 31.95.86 3 1.94 5.93 3.08 8.84-3.07 3.36-6.11 6.73-9.21 10.06 4.3.77 8.59 1.58 12.86 2.48-3.41 4.43-7.07 8.68-11.32 12.32 7.01.03 13.95-1.06 20.74-2.75 9.6-2.38 19.53 1.17 29.12-1.52 9.86-2.79 19.47 1.64 29.2 2.66-1.8-2.89-3.6-5.76-5.46-8.61 3.78-4.6 8.22-8.58 13.12-11.96-4.21.69-8.41 1.36-12.62 2 3.33-8.69 9.62-16.02 17.79-20.5 20.94-9.86 41.7-20.26 63.1-29.05-9.56 9.49-21.22 16.52-32.45 23.82-6.81 4.48-15.77 6.51-19.99 14.11 3.31 7.99 12.82 5.18 19.45 4.33 19.32-2.14 38.67-4 58.01-5.99 5.71-.93 11.5-2.33 17.28-1-14.77 5.23-30.51 6.6-45.86 9.29-19.69 2.62-41 4.2-57.22 16.98-3.17 2.52-8.23 6.55-5.15 10.97 4.4 3.8 10.29 5.36 14.9 8.93-36.01 2.51-70.98-12.71-106.95-8.06-9.35.98-17.88 4.98-26.75 7.71 2.77-7.21 8.99-12.03 13.47-18.09-1.64-2.41-2.67-7.15-6.49-6.35-13.72 2.53-27.81 2.37-41.66 1.12-22.84-3.28-44.83-13.29-61.96-28.8-7.93-7.53-15.14-16.41-18.3-27.04 16.3 17.14 37.04 29.26 58.51 38.76 16.71 7.1 35.08 7.45 52.82 9.7 6.58.88 10-6.75 8.52-12.26-2.63-11.82-10.55-21.48-15.14-32.53Z"/><path id="#355c00ff" fill="#355c00" opacity="1" d="M364.51 47.5c3.37-3.04 7.63-5.87 12.41-5.17 9.09.98 17.51 4.89 25.74 8.65-5.82 15.82-11.59 32.04-12.26 49.06-.25 6.76-1.99 14.07 1.12 20.43 6.89 3.75 13.08-4.17 19.75-5.38-8.17 4.48-14.46 11.81-17.79 20.5 4.21-.64 8.41-1.31 12.62-2-4.9 3.38-9.34 7.36-13.12 11.96 1.86 2.85 3.66 5.72 5.46 8.61-9.73-1.02-19.34-5.45-29.2-2.66-9.59 2.69-19.52-.86-29.12 1.52-6.79 1.69-13.73 2.78-20.74 2.75 4.25-3.64 7.91-7.89 11.32-12.32-4.27-.9-8.56-1.71-12.86-2.48 3.1-3.33 6.14-6.7 9.21-10.06-1.14-2.91-2.22-5.84-3.08-8.84 1.01 6.39 10.78 8.44 12.15 1.26.86-17.17 4.57-34.2 11.03-50.15 3.57-9.82 9.67-18.64 17.36-25.68m-27.11 84.02c-3.8 1.51-3.76 6.78-1.53 9.62 5.89 8.54 17.24 11.72 27.13 9.97 6.37-1.18 14.36-.68 18.53-6.6 1.93-2.66 2.07-8.19-1.84-9.06-5.17-1.21-9.09 3.6-14.03 4.08-4.66.45-9.43.59-14.03-.29-5.57-1.18-7.78-9.95-14.23-7.72Z"/><path id="#fe250cff" fill="#fe250c" opacity="1" d="M281.5 50.52c10.56-.21 21.17-.47 31.71.2 10.15 2.37 20.77.71 30.73 4.11-8.31 14.22-13.26 30.15-16.36 46.25-12.54-19.32-32.91-31.88-46.08-50.56Z"/><path id="#fe240aff" fill="#fe240a" opacity="1" d="M177.75 71.96c23.48-9.28 48.04-16.04 73.21-18.53 7.05 18.05 14.77 35.87 23.45 53.21 3.17 5.99 6.78 11.78 8.87 18.27-6.8-.57-13.49-2.05-20.33-2.21-21.98-1.91-41.65-13.08-59.73-24.94-9.76-7.1-20.1-14.66-25.47-25.8Z"/><path id="#ff250bff" fill="#ff250b" opacity="1" d="M401.55 107.03c-1.09-13.92 3.13-27.49 7.12-40.64 16.82 4.72 34.01 8.21 50.55 13.91-19.21 8.95-38.4 17.92-57.67 26.73Z"/><path id="#fe270cff" fill="#fe270c" opacity="1" d="M70.15 155.17c22.9-32.05 54.15-57.81 89.47-75.13 4.96 16.04 12.72 31.58 25.64 42.71 25.84 24.62 62.66 34.72 97.7 33.67-6.7 8.68-10.36 19.11-14.26 29.22-1.36 3.12-.72 6.54-.29 9.78 2.27.42 4.54.84 6.82 1.23 4.53-4.65 7.34-10.86 12.81-14.59 12.98-10.08 30.01-12.67 46-12.71 22.76 1.89 45.16 7.03 67.91 8.7 10.9 1.83 22.19 2.07 33.06-.15 5.41-.97 11.76.35 16.17-3.69 2.75-2.56 1.39-7.1-1.89-8.47-8.09-3.98-17.02-6.16-24.83-10.75.06-.45.17-1.34.23-1.79 10.79-6.36 23.46-8.44 35.71-10 31.82-4 63.54-10.14 93.75-21.14 5.03-1.74 10.74-5.19 15.97-2.12 21.01 11.29 40.55 25.64 56.64 43.29 30.98 33.06 48.49 77.14 53.77 121.76 1.16 11.11 3.06 22.26 1.79 33.47-10.41 34.51-20.86 69.3-37.51 101.43-7.19 11.44-13.98 24.5-26.52 30.89-2.85-9.78-2.23-20.04-3.68-30.03-4.12-46.83-10.94-95.2-34.78-136.55-15.05-23.54-33.45-45.4-56.09-61.98-3.92-3.33-9.04-4.28-14.01-4.72.32 4.01.49 8.09 1.61 11.99 10.39 30.52 21.45 61.05 27.02 92.92 3.66 16.55 3.12 33.67 2.2 50.48-4.52 30.7-15.37 60.51-32 86.73-6.78 9.71-16.57 16.73-24.08 25.82-12.01 16.01-28.64 28.25-46.92 36.2-48.15 20.99-104.03 21.19-153.39 4.14-20.4-7.99-41.34-17.08-56.45-33.51-23.83-29.41-36.31-65.62-50.88-100.04-5.74-15.95-11.89-31.77-18.86-47.23-3.76-9.54-6.79-20.19-14.93-27.05-5.08-3.63-10.66 1.68-12.98 6.08-10.23 19.13-12.42 41.16-14.92 62.35-1.82 12.46-1.03 25.09-2.1 37.62-.95 9.66 2.51 19.48-.5 28.96-14.87-36.15-15.51-76.3-10.75-114.55-2.92-2.44-8.01-4.38-10.11.1-4.54 17.78-2.74 36.32-3.05 54.48 2.02 33.71 11.48 67.4 30.17 95.76-1.24 4.71-3.76 12.16-10.16 9.67-12.11-5.03-19.32-17.05-27.19-26.92-26.67-42.71-43.19-90.95-54.04-139.91-3.16-16.08-7.64-32.2-6.7-48.74 7-45.4 22.14-90.33 49.43-127.68m73.26-5.67c-8.34.75-16.36 3.94-23.22 8.7-10.86 7.19-20.77 16.08-28.13 26.9-18.09 24.14-28.22 54.64-26.01 84.91.79 6.65 1.81 14.15 6.79 19.07 6.06 2.95 12.15-2.76 13.53-8.47 6.76-24.94 17.92-51.36 40.93-65.36 11.98-8.93 29.4-7.61 39.63-19.33 7.15-9.19 9.13-22.11 6.33-33.26-4.56-11.6-18.64-14.81-29.85-13.16m270.98 70.86c-19.18 2.47-37.88 8.68-57.39 8.44-14.46-.35-28.77-2.67-43.06-4.7-11.02-1.76-23.2 3.43-28.3 13.62-11.03 20.39-8.28 45.18-1.86 66.58 4.7 15.94 16.61 29.26 31.54 36.39 20.13 10.13 43.98 10.62 65.44 4.74 16.69-4.69 32.82-11.32 48.12-19.46 9.6-5.24 17.59-14.23 19.81-25.14 3.75-21.15 1.21-42.74-1.9-63.8-.8-6.06-3.6-12.61-9.57-15.15-7.28-2.68-15.25-2.37-22.83-1.52m-294.18 29.81c-13.39 15.68-21.9 35.15-26.63 55.09-1.03 2.74.5 5.21 1.72 7.56 4.68.77 9.01-1.18 9.2-6.41 3.88-17.21 11.4-33.66 22.38-47.49 2.18-2.37 1.75-5.72 1.96-8.67-2.67-1.59-6.39-3.35-8.63-.08m-48.88 66.24c-4.35-.11-6.76 4.12-8.31 7.57-5.32 11.74-3.42 25.32.97 37.03 2.51 6.98 6.61 14.03 13.45 17.48 3.33 1.81 9.31 1.2 9.56-3.49 1.39-15.77 1.68-32.23-3.71-47.35-1.92-5.21-6.01-10.77-11.96-11.24Z"/><path id="#fe250bff" fill="#fe250b" opacity="1" d="M455.35 114.47c12-7.18 22.22-17.03 33.67-24.79 16.05 5.79 32.51 10.48 48.65 15.98-15.22 3.86-31.05 3.84-46.45 6.65-12.04-.11-23.77 3.61-35.87 2.16Z"/><path id="#16120bff" fill="#16120b" opacity="1" d="M337.4 131.52c6.45-2.23 8.66 6.54 14.23 7.72 4.6.88 9.37.74 14.03.29 4.94-.48 8.86-5.29 14.03-4.08 3.91.87 3.77 6.4 1.84 9.06-4.17 5.92-12.16 5.42-18.53 6.6-9.89 1.75-21.24-1.43-27.13-9.97-2.23-2.84-2.27-8.11 1.53-9.62Z"/><path id="#fe5637ff" fill="#fe5637" opacity="1" d="M143.41 149.5c11.21-1.65 25.29 1.56 29.85 13.16 2.8 11.15.82 24.07-6.33 33.26-10.23 11.72-27.65 10.4-39.63 19.33-23.01 14-34.17 40.42-40.93 65.36-1.38 5.71-7.47 11.42-13.53 8.47-4.98-4.92-6-12.42-6.79-19.07-2.21-30.27 7.92-60.77 26.01-84.91 7.36-10.82 17.27-19.71 28.13-26.9 6.86-4.76 14.88-7.95 23.22-8.7ZM414.39 220.36c7.58-.85 15.55-1.16 22.83 1.52 5.97 2.54 8.77 9.09 9.57 15.15 3.11 21.06 5.65 42.65 1.9 63.8-2.22 10.91-10.21 19.9-19.81 25.14-15.3 8.14-31.43 14.77-48.12 19.46-21.46 5.88-45.31 5.39-65.44-4.74-14.93-7.13-26.84-20.45-31.54-36.39-6.42-21.4-9.17-46.19 1.86-66.58 5.1-10.19 17.28-15.38 28.3-13.62 14.29 2.03 28.6 4.35 43.06 4.7 19.51.24 38.21-5.97 57.39-8.44Z"/><path id="#fb1101ff" fill="#fb1101" opacity="1" d="M509.73 217.5c4.97.44 10.09 1.39 14.01 4.72 22.64 16.58 41.04 38.44 56.09 61.98 23.84 41.35 30.66 89.72 34.78 136.55 1.45 9.99.83 20.25 3.68 30.03 12.54-6.39 19.33-19.45 26.52-30.89 16.65-32.13 27.1-66.92 37.51-101.43 1.48 18.68-1.81 37.15-4.17 55.59-11.16 66.38-40.4 130.88-88.12 178.99-22.48 21.76-49.22 39.05-78.2 50.82-43.71 18.42-90.99 26.22-137.81 31.52-8.46-.64-16.58 2.55-25.02 2.09-19.99-.14-40.15 1.31-59.94-2.03-77.29-10.14-151.68-47.34-203.22-106.3C32 468.95 8.76 384.56 18.24 305.01c-.36-7.52 2.14-14.71 2.48-22.16-.94 16.54 3.54 32.66 6.7 48.74 10.85 48.96 27.37 97.2 54.04 139.91 7.87 9.87 15.08 21.89 27.19 26.92 6.4 2.49 8.92-4.96 10.16-9.67 9.95 15.74 23.02 29.37 37.68 40.79 3.06 2.24 6.78 5.18 10.81 3.75 2.76-1.16 2.65-4.66 3.56-7.07-26.84-17.14-46.94-43.7-58.31-73.26 3.01-9.48-.45-19.3.5-28.96 1.07-12.53.28-25.16 2.1-37.62 2.5-21.19 4.69-43.22 14.92-62.35 2.32-4.4 7.9-9.71 12.98-6.08 8.14 6.86 11.17 17.51 14.93 27.05 6.97 15.46 13.12 31.28 18.86 47.23 14.57 34.42 27.05 70.63 50.88 100.04 15.11 16.43 36.05 25.52 56.45 33.51 49.36 17.05 105.24 16.85 153.39-4.14 18.28-7.95 34.91-20.19 46.92-36.2 7.51-9.09 17.3-16.11 24.08-25.82 16.63-26.22 27.48-56.03 32-86.73.92-16.81 1.46-33.93-2.2-50.48-5.57-31.87-16.63-62.4-27.02-92.92-1.12-3.9-1.29-7.98-1.61-11.99Z"/><path id="#12120cff" fill="#12120c" opacity="1" d="M120.21 250.17c2.24-3.27 5.96-1.51 8.63.08-.21 2.95.22 6.3-1.96 8.67-10.98 13.83-18.5 30.28-22.38 47.49-.19 5.23-4.52 7.18-9.2 6.41-1.22-2.35-2.75-4.82-1.72-7.56 4.73-19.94 13.24-39.41 26.63-55.09Z"/><path id="#fe5535ff" fill="#fe5535" opacity="1" d="M71.33 316.41c5.95.47 10.04 6.03 11.96 11.24 5.39 15.12 5.1 31.58 3.71 47.35-.25 4.69-6.23 5.3-9.56 3.49-6.84-3.45-10.94-10.5-13.45-17.48-4.39-11.71-6.29-25.29-.97-37.03 1.55-3.45 3.96-7.68 8.31-7.57Z"/><path id="#14120bff" fill="#14120b" opacity="1" d="M91.69 338.51c2.1-4.48 7.19-2.54 10.11-.1-4.76 38.25-4.12 78.4 10.75 114.55 11.37 29.56 31.47 56.12 58.31 73.26-.91 2.41-.8 5.91-3.56 7.07-4.03 1.43-7.75-1.51-10.81-3.75-14.66-11.42-27.73-25.05-37.68-40.79-18.69-28.36-28.15-62.05-30.17-95.76.31-18.16-1.49-36.7 3.05-54.48Z"/><text class="timer-text" x="50%" y="60%" text-anchor="middle" style="font-family:Neucha,sans-serif"/></g></svg>