<?xml-stylesheet type="text/css" href="../scss/main.scss"?>
<svg class="slider-tomato" viewBox="0 0 700 656" fill="none" xmlns="http://www.w3.org/2000/svg">
    <style>
    text { 
        font-family: Neucha,sans-serif;
        font-size: 11.5rem !important; 
    }
    </style>
    <g class="bomb-pomo">
        <path d="M510.724 86.7958C514.634 86.4166 517.2 82.015 515.237 78.5998L513.689 75.9065C512.814 74.3843 511.211 73.4333 509.461 73.4907C506.697 73.5813 502.225 73.8648 497.532 74.7243C497.133 79.4374 497.445 82.3528 499.32 86.0733C499.727 86.8823 500.209 87.7293 500.773 88.6412C504.048 87.6509 507.593 87.0993 510.724 86.7958Z" fill="black"/>
        <path d="M473.85 113.05C476.726 115.799 481.662 114.269 482.882 110.478C484.974 103.983 488.573 95.6791 494.087 91.7358C495.961 90.3963 498.289 89.3925 500.773 88.6412C500.209 87.7293 499.727 86.8823 499.32 86.0733C489.405 87.6565 484.275 95.5644 483.457 99.4568C482.705 103.034 481.723 105.556 478.701 108.17C478.155 108.641 477.492 108.967 476.779 109.063C473.638 109.483 471.93 108.159 469.257 106.085L468.871 105.786C468.726 106.423 468.58 107.076 468.43 107.75L468.428 107.757L468.408 107.849L473.85 113.05Z" fill="#BA9A43"/>
        <path d="M497.532 74.7243C492.558 75.6353 487.336 77.1935 483.638 79.8551C483.405 80.0228 483.188 80.2218 482.993 80.4327C472.605 91.67 470.817 97.23 468.871 105.786L469.257 106.085C471.93 108.159 473.638 109.483 476.779 109.063C477.492 108.967 478.155 108.641 478.701 108.17C481.723 105.556 482.705 103.034 483.457 99.4568C484.275 95.5644 489.405 87.6565 499.32 86.0733C497.445 82.3528 497.133 79.4374 497.532 74.7243Z" fill="#E9CD7A"/>
        <path d="M489.966 9.35455L520.358 52.3848L525.99 5.2732L543.113 52.3848L613.389 5.27319L551.647 70.9359L606.691 73.2499L551.647 87.3465C564.684 120.405 590.332 187.237 588.625 190.091C586.918 192.945 551.41 128.492 533.869 95.9085L520.358 120.168L511.113 75.2169L457.904 70.9359L489.966 63.5275L404.284 13.224L503.233 56.3413L489.966 9.35455Z" fill="#FFD01E"/>
        <path d="M424.629 74.578C422.177 73.3081 419.166 74.2698 417.904 76.726L394.412 122.445C393.15 124.901 394.114 127.922 396.567 129.192L408.428 135.335C412.648 111.858 416.975 99.3411 437.462 81.2242L424.629 74.578Z" fill="#666B6B"/>
        <path d="M437.462 81.2242C416.975 99.3411 412.648 111.858 408.428 135.335L432.324 147.709L432.508 146.476C436.146 122.177 438.243 108.178 459.362 92.5651L437.462 81.2242Z" fill="#244142"/>
        <path d="M509.9 187.883C512.352 189.153 515.363 188.191 516.625 185.735L540.117 140.016C541.379 137.56 540.414 134.539 537.962 133.27L513.507 120.605L473.218 99.741L459.362 92.5651C438.243 108.178 436.146 122.177 432.508 146.476L432.324 147.709L445.522 154.544L483.291 174.104L509.9 187.883Z" fill="#142E2F"/>
        <path d="M350.766 652.024C500.102 652.024 621.162 530.558 621.162 380.722C621.162 364.335 619.714 348.287 616.939 332.701C524.567 607.741 392.975 601.558 135.715 545.206C185.119 610.133 263.067 652.024 350.766 652.024Z" fill="#142E2F"/>
        <path fill-rule="evenodd" clip-rule="evenodd" d="M135.715 545.206C100.993 499.575 80.3704 442.565 80.3704 380.722C80.3704 230.886 201.431 109.419 350.766 109.419C443.073 109.419 524.578 155.828 573.366 226.66C586.281 523.15 438.2 530.275 211.853 541.166C187.355 542.345 161.941 543.568 135.715 545.206Z" fill="#2D4F51"/>
        <path d="M135.715 545.206C392.975 601.558 524.567 607.741 616.939 332.701C610.026 293.863 594.875 257.888 573.366 226.66C586.281 523.15 438.2 530.275 211.853 541.166C187.355 542.345 161.941 543.568 135.715 545.206Z" fill="#244142"/>
        <path d="M334.467 192.471C319.945 214.929 295.057 215.575 271.204 200.048C258.715 179.852 256.682 175.606 271.204 153.147C285.726 130.689 335.078 129.484 358.932 145.012C382.785 160.539 348.989 170.013 334.467 192.471Z" fill="#666B6B"/>
        <text class="timer-text" x="50%" y="65%" style="fill: #AAD9DC;" text-anchor="middle">Start</text>
    </g>
</svg>
