<?xml-stylesheet type="text/css" href="../scss/main.scss"?>
<svg class="slider-tomato" viewBox="0 0 700 656" fill="none" xmlns="http://www.w3.org/2000/svg">
    <g>
        <path d="M510.724 86.1472C514.634 85.768 517.2 81.3664 515.237 77.9512L513.689 75.2579C512.814 73.7356 511.211 72.7847 509.461 72.8421C506.697 72.9327 502.225 73.2162 497.532 74.0756C497.133 78.7887 497.445 81.7042 499.32 85.4246C499.727 86.2336 500.209 87.0807 500.773 87.9926C504.048 87.0023 507.593 86.4507 510.724 86.1472Z" fill="black"/>
        <path d="M473.85 112.402C476.726 115.15 481.662 113.621 482.882 109.83C484.974 103.334 488.573 95.0305 494.087 91.0872C495.961 89.7477 498.289 88.7439 500.773 87.9926C500.209 87.0807 499.727 86.2336 499.32 85.4246C489.405 87.0079 484.275 94.9158 483.457 98.8082C482.705 102.385 481.723 104.907 478.701 107.521C478.155 107.993 477.492 108.319 476.779 108.414C473.638 108.834 471.93 107.51 469.257 105.436L468.871 105.137C468.726 105.774 468.58 106.428 468.43 107.101L468.428 107.108L468.408 107.201L473.85 112.402Z" fill="#BA9A43"/>
        <path d="M497.532 74.0756C492.558 74.9867 487.336 76.5449 483.638 79.2065C483.405 79.3742 483.188 79.5731 482.993 79.7841C472.605 91.0214 470.817 96.5813 468.871 105.137L469.257 105.436C471.93 107.51 473.638 108.834 476.779 108.414C477.492 108.319 478.155 107.993 478.701 107.521C481.723 104.907 482.705 102.385 483.457 98.8082C484.275 94.9158 489.405 87.0079 499.32 85.4246C497.445 81.7042 497.133 78.7887 497.532 74.0756Z" fill="#E9CD7A"/>
        <path d="M489.966 8.70599L520.358 51.7363L525.99 4.62464L543.113 51.7363L613.389 4.62463L551.647 70.2874L606.691 72.6014L551.647 86.6979C564.684 119.757 590.332 186.588 588.625 189.442C586.918 192.296 551.41 127.843 533.869 95.2599L520.358 119.519L511.113 74.5684L457.904 70.2874L489.966 62.8789L404.284 12.5755L503.233 55.6927L489.966 8.70599Z" fill="#FFD01E"/>
        
        <path id="bombP1" d="M424.629 73.9294C422.177 72.6596 419.166 73.6212 417.904 76.0774L394.412 121.797C393.15 124.253 394.114 127.273 396.567 128.543L408.428 134.686C412.648 111.209 416.975 98.6925 437.462 80.5756L424.629 73.9294Z" fill="#F9F9F9"/>
        <path id="bombP2" d="M437.462 80.5756C416.975 98.6925 412.648 111.209 408.428 134.686L432.324 147.061L432.508 145.827C436.146 121.529 438.243 107.53 459.362 91.9165L437.462 80.5756Z" fill="#EEEEEE"/>
        <path id="bombP3" d="M509.9 187.235C512.352 188.505 515.363 187.543 516.625 185.087L540.117 139.368C541.379 136.911 540.414 133.891 537.962 132.621L513.507 119.956L473.218 99.0924L459.362 91.9165C438.243 107.53 436.146 121.529 432.508 145.827L432.324 147.061L445.522 153.896L483.291 173.455L509.9 187.235Z" fill="#E2E2E2"/>
        <path id="bombP4" d="M350.766 651.376C500.102 651.376 621.162 529.909 621.162 380.073C621.162 363.686 619.714 347.639 616.939 332.052C524.567 607.093 392.975 600.909 135.715 544.558C185.119 609.485 263.067 651.376 350.766 651.376Z" fill="#E2E2E2"/>
        <path id="bombP5" fill-rule="evenodd" clip-rule="evenodd" d="M135.715 544.558C100.993 498.926 80.3704 441.916 80.3704 380.073C80.3704 230.237 201.431 108.771 350.766 108.771C443.073 108.771 524.578 155.18 573.366 226.011C586.281 522.502 438.2 529.627 211.853 540.518C187.355 541.696 161.941 542.919 135.715 544.558Z" fill="#F9F9F9"/>
        <path id="bombP6" d="M135.715 544.558C392.975 600.909 524.567 607.093 616.939 332.052C610.026 293.214 594.875 257.239 573.366 226.011C586.281 522.502 438.2 529.627 211.853 540.518C187.355 541.696 161.941 542.919 135.715 544.558Z" fill="#EDEDED"/>
        <path id="bombP7" d="M334.467 191.822C319.945 214.281 295.057 214.927 271.204 199.399C258.715 179.204 256.682 174.957 271.204 152.499C285.726 130.04 335.078 128.836 358.932 144.363C382.785 159.891 348.989 169.364 334.467 191.822Z" fill="white"/>
    </g>
</svg>