<?xml-stylesheet type="text/css" href="../scss/main.scss"?>
<svg class="slider-tomato" viewBox="0 0 700 656" fill="none" xmlns="http://www.w3.org/2000/svg">
    <style>
        text { 
            font-family: Neucha,sans-serif;
            font-size: 11rem !important;
        }
    </style>
     <g>
        <path d="M154.405 74.9772L179.514 219.96L582.253 395.297L664.392 346.32L595.007 425.398L683.269 444.388L589.395 456.91L658.27 562.127L570.008 483.049L595.007 557.025L548.581 483.049L545.009 591.207L500.623 489.681L140.985 302.796L16.7312 324.95L110.334 257.548L23.6026 202.958L122.681 230.954L28.2643 133.516L143.075 210.182L154.405 74.9772Z" fill="#FFE600"/>
        <path d="M122.455 177.636L175.537 225.98L383.11 284.445L512.648 375.746L543.5 381.125L585.053 415.956L647.383 389.068L591.775 445.552L629.05 490.507L574.665 468.493L597.275 538.782L564.888 486.84L556.944 532.671L512.648 461.175L175.537 341.385L145.691 333.489L128.772 291.19L68.3812 301.355L109.346 271.86L68.3812 245.643H122.455L58.5496 185.015L138.841 225.98L122.455 177.636Z" fill="#FB1101"/>
        <path d="M520.304 164.697C522.758 165.963 525.774 165.001 527.04 162.547L550.587 116.926C551.854 114.472 550.891 111.456 548.437 110.19L523.964 97.558C518.839 124.891 510.503 134.934 493.676 150.953L520.304 164.697Z" fill="#142E2F"/>
        <path d="M435.023 51.6521C432.569 50.3855 429.553 51.348 428.287 53.8019L404.74 99.4228C403.473 101.877 404.436 104.893 406.89 106.159L418.76 112.286C423.002 88.857 427.342 76.3654 447.866 58.2808L435.023 51.6521Z" fill="#666B6B"/>
        <path d="M447.866 58.2808C427.342 76.3654 423.002 88.857 418.76 112.286L442.672 124.628L442.858 123.397C446.518 99.1487 448.627 85.1782 469.781 69.5919L447.866 58.2808Z" fill="#244142"/>
        <path d="M508.15 81.8775C510.957 80.1956 510.593 79.2503 507.974 77.2889L502.907 73.4938C500.657 71.8089 497.42 72.2849 495.417 74.2569C492.36 77.2667 487.354 81.2168 480.904 82.8866C477.878 83.67 475.873 86.5994 478.413 88.4218C481.976 90.9781 487.268 92.4908 489.773 95.1948V95.1948C491.106 96.6344 493.439 96.2054 494.554 94.5906C498.422 88.9891 504.068 84.3236 508.15 81.8775Z" fill="black"/>
        <path d="M493.676 150.953C510.503 134.934 518.839 124.891 523.964 97.558L505.626 88.2475L486.028 77.9943L483.647 76.7489L469.781 69.5919C448.627 85.1782 446.518 99.1487 442.858 123.397L442.672 124.628L455.881 131.445L493.676 150.953Z" fill="#142E2F"/>
        <path d="M609.805 286.352C603.34 250.156 589.173 216.628 569.059 187.524C573.378 286.345 558.442 350.675 527.79 393.008L559.869 399.317C577.972 369.122 594.467 331.869 609.805 286.352Z" fill="#244142"/>
        <path d="M613.754 331.107C613.754 315.835 612.4 300.879 609.805 286.352C594.467 331.869 577.972 369.122 559.869 399.317L576.484 463.306C600.122 424.841 613.754 379.566 613.754 331.107Z" fill="#142E2F"/>
        <path d="M142.819 518.262C189.017 578.773 261.907 617.815 343.916 617.815C435.103 617.815 515.016 569.545 559.497 497.164L542.882 433.174C459.034 573.023 340.669 561.456 142.819 518.262Z" fill="#142E2F"/>
        <path d="M193.001 283.244L215.842 302.675L269.256 300.112L250.983 276.568L193.001 283.244Z" fill="#2D4F51"/>
        <path d="M342.051 336.533H394.759L415.352 366.803H390.681L380.509 355.955H364.615L342.051 336.533Z" fill="#2D4F51"/>
        <path d="M254.949 333.331L278.806 350.718L307.515 330.905L254.949 333.331Z" fill="#2D4F51"/>
        <path d="M142.819 518.262C340.669 561.456 459.034 573.023 542.882 433.174L510.803 451.823L501.563 439.602C446.505 515.642 349.981 507.977 214.016 514.497L214.012 514.497C191.105 515.596 167.342 516.735 142.819 518.262Z" fill="#244142"/>
        <path d="M504.528 418.069L515.57 435.964L538.415 425.303L504.528 418.069Z" fill="#244142"/>
        <path d="M569.059 187.524C523.437 121.509 447.22 78.2564 360.902 78.2564C257.81 78.2564 169.128 139.954 129.765 228.439L176.682 274.733L261.937 266.226L282.255 302.675H407.728L457.453 379.176L485.603 373.905L496.491 386.853L527.79 393.008C558.442 350.675 573.378 286.345 569.059 187.524Z" fill="#2D4F51"/>
        <path d="M462.099 386.853L482.786 380.083L491.119 394.289L462.099 386.853Z" fill="#2D4F51"/>
        <path d="M436.892 396.035C437.161 396.483 443.803 404.215 447.09 408.026L458.745 405.448L445.745 398.052L436.892 396.035Z" fill="#2D4F51"/>
        <path d="M370.594 319.583L334.606 315.54L386.363 326.862L370.594 319.583Z" fill="#2D4F51"/>
        <path d="M407.728 330.905H418.46L424.777 343.036L418.46 350.718L407.728 330.905Z" fill="#2D4F51"/>
        <path d="M91.0652 364.964C91.0652 422.601 110.35 475.734 142.819 518.262C167.342 516.735 191.105 515.596 214.012 514.497L214.016 514.497C349.981 507.977 446.505 515.642 501.563 439.602L488.637 422.506L440.467 413.033L418.46 379.176H383.616L373.444 368.328H357.55L324.49 336.533L282.255 365.441L238.939 336.533H188.015L179.175 327.809H147.652L145.431 294.514L112.778 262.296C98.8216 293.67 91.0652 328.411 91.0652 364.964Z" fill="#2D4F51"/>
        <path d="M155.58 302.675V320.649H179.175L155.58 302.675Z" fill="#2D4F51"/>
        <path d="M193.001 318.331L199.478 327.809L208.158 324.617L193.001 318.331Z" fill="#2D4F51"/>
        <path d="M337.518 184.652C326.78 201.203 308.377 201.679 290.739 190.236C281.504 175.353 280.001 172.223 290.739 155.672C301.477 139.121 337.97 138.233 355.608 149.676C373.247 161.12 348.256 168.101 337.518 184.652Z" fill="#666B6B"/>
        <path d="M580.737 612.444L568.25 501.613L607.204 609.462L580.737 612.444Z" fill="#2D4F51"/>
        <path d="M665.691 380.758L603.922 431.958L669.826 409.522L665.691 380.758Z" fill="#2D4F51"/>
        <path d="M44.1153 303.423L95.5042 273.641L37.003 291.151L44.1153 303.423Z" fill="#2D4F51"/>
        <path d="M107.41 97.7075L130.533 173.965L88.2255 119.272L107.41 97.7075Z" fill="#2D4F51"/>
        <path d="M652.113 498.631C632.529 489.438 590.961 470.333 581.368 467.455L674.896 483.043L652.113 498.631Z" fill="#2D4F51"/>
        <path d="M42.058 208.538C56.9356 214.412 88.294 227.086 94.7068 230.787L38.8904 188.376L42.058 208.538Z" fill="#2D4F51"/>
        <text class="timer-text" x="50%" y="62%" style="fill: #AAD9DC;" text-anchor="middle">Start</text>
    </g>
</svg>
